<?xml version="1.0" encoding="utf-8"?>
<svg viewBox="-11.5 -10.23174 23 20.46348" width="23" height="20.46348"
  xmlns="http://www.w3.org/2000/svg">
  <path stroke="rgb(255,0,0)"
    d="M -4.711 -9.624 C -4.465 -9.632 -4.1 -9.62 -3.834 -9.523 C -3.572 -9.427 -3.362 -9.151 -3.126 -9.05 C -2.912 -8.959 -2.735 -9.003 -2.484 -8.915 C -2.154 -8.799 -1.602 -8.536 -1.304 -8.342 C -1.072 -8.191 -0.945 -8.076 -0.781 -7.886 C -0.594 -7.671 -0.459 -7.242 -0.258 -7.093 C -0.095 -6.973 0.144 -6.935 0.282 -6.958 C 0.393 -6.977 0.482 -7.089 0.535 -7.144 C 0.572 -7.181 0.569 -7.208 0.603 -7.245 C 0.649 -7.295 0.704 -7.313 0.805 -7.414 C 1.015 -7.622 1.43 -8.283 1.868 -8.612 C 2.335 -8.961 3.067 -9.279 3.555 -9.421 C 3.938 -9.533 4.267 -9.554 4.567 -9.523 C 4.833 -9.495 5.06 -9.406 5.276 -9.286 C 5.494 -9.165 5.704 -9.007 5.867 -8.797 C 6.042 -8.57 6.172 -8.271 6.271 -7.954 C 6.382 -7.604 6.441 -7.149 6.474 -6.773 C 6.504 -6.421 6.507 -6.066 6.474 -5.76 C 6.444 -5.488 6.411 -5.323 6.305 -5.018 C 6.156 -4.588 5.39 -3.711 5.563 -3.382 C 5.737 -3.049 6.863 -3.252 7.368 -3.044 C 7.815 -2.86 8.088 -2.466 8.481 -2.268 C 8.865 -2.075 9.371 -2.043 9.696 -1.863 C 9.974 -1.71 10.186 -1.519 10.354 -1.307 C 10.513 -1.106 10.624 -0.872 10.692 -0.632 C 10.76 -0.389 10.79 -0.115 10.759 0.144 C 10.727 0.413 10.625 0.718 10.489 0.954 C 10.358 1.183 10.163 1.376 9.966 1.545 C 9.77 1.713 9.506 1.802 9.308 1.966 C 9.112 2.129 8.991 2.37 8.785 2.523 C 8.572 2.681 8.358 2.8 8.043 2.894 C 7.634 3.016 6.714 3.001 6.474 3.113 C 6.361 3.167 6.407 3.228 6.322 3.299 C 6.183 3.415 5.674 3.458 5.63 3.721 C 5.564 4.122 6.566 5.13 6.744 5.779 C 6.896 6.335 6.85 6.866 6.778 7.365 C 6.708 7.842 6.508 8.381 6.339 8.715 C 6.211 8.966 6.09 9.113 5.917 9.271 C 5.738 9.435 5.527 9.586 5.276 9.676 C 4.997 9.776 4.611 9.836 4.298 9.811 C 3.993 9.787 3.778 9.75 3.42 9.541 C 2.854 9.21 1.806 8.015 1.227 7.652 C 0.846 7.413 0.634 7.277 0.282 7.281 C -0.124 7.284 -0.821 7.587 -1.084 7.804 C -1.265 7.952 -1.221 8.133 -1.354 8.31 C -1.519 8.528 -1.765 8.816 -2.046 9.001 C -2.347 9.2 -2.71 9.357 -3.126 9.44 C -3.603 9.535 -4.341 9.543 -4.779 9.474 C -5.116 9.42 -5.366 9.307 -5.589 9.17 C -5.79 9.047 -5.936 8.913 -6.078 8.715 C -6.242 8.485 -6.406 8.179 -6.483 7.837 C -6.572 7.442 -6.531 6.943 -6.517 6.454 C -6.501 5.924 -6.346 5.157 -6.382 4.767 C -6.404 4.515 -6.521 4.421 -6.55 4.227 C -6.582 4.018 -6.57 3.717 -6.55 3.552 C -6.537 3.439 -6.428 3.364 -6.483 3.299 C -6.572 3.191 -7.084 3.262 -7.377 3.13 C -7.704 2.983 -8.165 2.577 -8.339 2.405 C -8.433 2.311 -8.382 2.262 -8.49 2.186 C -8.697 2.04 -9.413 1.907 -9.739 1.713 C -10.009 1.553 -10.198 1.377 -10.363 1.156 C -10.53 0.933 -10.669 0.633 -10.734 0.38 C -10.794 0.151 -10.801 -0.059 -10.768 -0.294 C -10.732 -0.552 -10.63 -0.872 -10.498 -1.104 C -10.373 -1.324 -10.264 -1.455 -10.009 -1.661 C -9.623 -1.973 -8.86 -2.439 -8.22 -2.741 C -7.563 -3.05 -6.368 -3.187 -6.112 -3.483 C -5.965 -3.653 -6.076 -3.815 -6.112 -4.04 C -6.16 -4.341 -6.39 -4.814 -6.449 -5.153 C -6.5 -5.447 -6.508 -5.709 -6.483 -5.963 C -6.459 -6.202 -6.304 -6.414 -6.314 -6.638 C -6.325 -6.864 -6.513 -7.096 -6.55 -7.313 C -6.585 -7.511 -6.581 -7.69 -6.55 -7.886 C -6.518 -8.095 -6.451 -8.329 -6.348 -8.527 C -6.244 -8.729 -6.105 -8.922 -5.926 -9.084 C -5.734 -9.258 -5.436 -9.434 -5.217 -9.523 C -5.037 -9.596 -4.91 -9.617 -4.711 -9.624 Z"
    style="stroke: rgb(129, 151, 57); stroke-width: 0px; fill: #B3FFFF" />
  <circle cx="0" cy="0" r="2.05" fill="#06c4f9" />
  <g stroke="#06c4f9" stroke-width="1" fill="none">
    <ellipse rx="11" ry="4.2" />
    <ellipse rx="11" ry="4.2" transform="rotate(60)" />
    <ellipse rx="11" ry="4.2" transform="rotate(120)" />
  </g>
</svg>